<mxfile host="app.diagrams.net" agent="Mozilla/5.0 (Windows NT 10.0; Win64; x64) AppleWebKit/537.36 (KHTML, like Gecko) Chrome/129.0.0.0 Safari/537.36" version="24.7.17" pages="6">
  <diagram name="DATVE" id="-6pD_12YhMq_ZjjF0mtk">
    <mxGraphModel dx="1290" dy="530" grid="1" gridSize="10" guides="1" tooltips="1" connect="1" arrows="1" fold="1" page="1" pageScale="1" pageWidth="827" pageHeight="1169" math="0" shadow="0">
      <root>
        <mxCell id="0" />
        <mxCell id="1" parent="0" />
        <mxCell id="ln--CeWa2b7uPzHcNE82-1" value="&lt;font style=&quot;font-size: 14px;&quot; face=&quot;Times New Roman&quot;&gt;&lt;b&gt;ĐẶT VÉ&lt;/b&gt;&lt;/font&gt;" style="rounded=0;whiteSpace=wrap;html=1;" vertex="1" parent="1">
          <mxGeometry x="320" y="80" width="150" height="50" as="geometry" />
        </mxCell>
        <mxCell id="ln--CeWa2b7uPzHcNE82-2" value="&lt;font face=&quot;Times New Roman&quot;&gt;&lt;b&gt;CHỌN NGÀY ĐẶT&lt;/b&gt;&lt;/font&gt;" style="rounded=0;whiteSpace=wrap;html=1;" vertex="1" parent="1">
          <mxGeometry x="180" y="160" width="120" height="60" as="geometry" />
        </mxCell>
        <mxCell id="ln--CeWa2b7uPzHcNE82-3" value="&lt;font face=&quot;Times New Roman&quot;&gt;&lt;b&gt;CHỌN RẠP VÀ GIỜ CHIẾU&lt;/b&gt;&lt;/font&gt;" style="rounded=0;whiteSpace=wrap;html=1;" vertex="1" parent="1">
          <mxGeometry x="480" y="160" width="120" height="60" as="geometry" />
        </mxCell>
        <mxCell id="ln--CeWa2b7uPzHcNE82-4" value="&lt;font face=&quot;Times New Roman&quot;&gt;&lt;b&gt;CHỌN SỐ GHẾ&lt;/b&gt;&lt;/font&gt;" style="rounded=0;whiteSpace=wrap;html=1;" vertex="1" parent="1">
          <mxGeometry x="180" y="260" width="120" height="60" as="geometry" />
        </mxCell>
        <mxCell id="ln--CeWa2b7uPzHcNE82-5" value="&lt;font face=&quot;Times New Roman&quot;&gt;&lt;b&gt;XÁC NHẬN VÀ THANH TOÁN&lt;/b&gt;&lt;/font&gt;" style="rounded=0;whiteSpace=wrap;html=1;" vertex="1" parent="1">
          <mxGeometry x="480" y="260" width="120" height="60" as="geometry" />
        </mxCell>
        <mxCell id="ln--CeWa2b7uPzHcNE82-6" value="&lt;font face=&quot;Times New Roman&quot;&gt;&lt;b&gt;XEM CHI TIẾT VÉ&lt;/b&gt;&lt;/font&gt;" style="rounded=0;whiteSpace=wrap;html=1;" vertex="1" parent="1">
          <mxGeometry x="335" y="360" width="120" height="60" as="geometry" />
        </mxCell>
        <mxCell id="ln--CeWa2b7uPzHcNE82-8" value="" style="endArrow=none;html=1;rounded=0;entryX=0.5;entryY=1;entryDx=0;entryDy=0;exitX=0.5;exitY=0;exitDx=0;exitDy=0;" edge="1" parent="1" source="ln--CeWa2b7uPzHcNE82-6" target="ln--CeWa2b7uPzHcNE82-1">
          <mxGeometry width="50" height="50" relative="1" as="geometry">
            <mxPoint x="390" y="260" as="sourcePoint" />
            <mxPoint x="440" y="210" as="targetPoint" />
          </mxGeometry>
        </mxCell>
        <mxCell id="ln--CeWa2b7uPzHcNE82-9" value="" style="endArrow=none;html=1;rounded=0;exitX=1;exitY=0.5;exitDx=0;exitDy=0;entryX=0;entryY=0.5;entryDx=0;entryDy=0;" edge="1" parent="1" source="ln--CeWa2b7uPzHcNE82-2" target="ln--CeWa2b7uPzHcNE82-3">
          <mxGeometry width="50" height="50" relative="1" as="geometry">
            <mxPoint x="370" y="210" as="sourcePoint" />
            <mxPoint x="420" y="160" as="targetPoint" />
          </mxGeometry>
        </mxCell>
        <mxCell id="ln--CeWa2b7uPzHcNE82-10" value="" style="endArrow=none;html=1;rounded=0;exitX=1;exitY=0.5;exitDx=0;exitDy=0;entryX=0;entryY=0.5;entryDx=0;entryDy=0;" edge="1" parent="1">
          <mxGeometry width="50" height="50" relative="1" as="geometry">
            <mxPoint x="300" y="289.5" as="sourcePoint" />
            <mxPoint x="480" y="289.5" as="targetPoint" />
          </mxGeometry>
        </mxCell>
      </root>
    </mxGraphModel>
  </diagram>
  <diagram id="0jxcpJRTk8MvQ8Mmuls5" name="hoàn vé">
    <mxGraphModel dx="1290" dy="530" grid="1" gridSize="10" guides="1" tooltips="1" connect="1" arrows="1" fold="1" page="1" pageScale="1" pageWidth="827" pageHeight="1169" math="0" shadow="0">
      <root>
        <mxCell id="0" />
        <mxCell id="1" parent="0" />
        <mxCell id="HUeR2i0Ve-qyK_40Yj_W-10" value="&lt;font style=&quot;font-size: 14px;&quot; face=&quot;Times New Roman&quot;&gt;&lt;b&gt;HOÀN VÉ&lt;/b&gt;&lt;/font&gt;" style="rounded=0;whiteSpace=wrap;html=1;" vertex="1" parent="1">
          <mxGeometry x="330" y="90" width="150" height="50" as="geometry" />
        </mxCell>
        <mxCell id="HUeR2i0Ve-qyK_40Yj_W-11" value="&lt;font face=&quot;Times New Roman&quot;&gt;&lt;b&gt;CHỌN ĐƠN VÉ&lt;/b&gt;&lt;/font&gt;" style="rounded=0;whiteSpace=wrap;html=1;" vertex="1" parent="1">
          <mxGeometry x="190" y="170" width="120" height="60" as="geometry" />
        </mxCell>
        <mxCell id="HUeR2i0Ve-qyK_40Yj_W-12" value="&lt;font face=&quot;Times New Roman&quot;&gt;&lt;b&gt;XÁC NHẬN HOÀN VÉ&lt;/b&gt;&lt;/font&gt;" style="rounded=0;whiteSpace=wrap;html=1;" vertex="1" parent="1">
          <mxGeometry x="490" y="170" width="120" height="60" as="geometry" />
        </mxCell>
        <mxCell id="HUeR2i0Ve-qyK_40Yj_W-17" value="" style="endArrow=none;html=1;rounded=0;exitX=1;exitY=0.5;exitDx=0;exitDy=0;entryX=0;entryY=0.5;entryDx=0;entryDy=0;" edge="1" parent="1" source="HUeR2i0Ve-qyK_40Yj_W-11" target="HUeR2i0Ve-qyK_40Yj_W-12">
          <mxGeometry width="50" height="50" relative="1" as="geometry">
            <mxPoint x="380" y="220" as="sourcePoint" />
            <mxPoint x="430" y="170" as="targetPoint" />
          </mxGeometry>
        </mxCell>
        <mxCell id="HUeR2i0Ve-qyK_40Yj_W-19" value="" style="endArrow=none;html=1;rounded=0;entryX=0.459;entryY=1.04;entryDx=0;entryDy=0;entryPerimeter=0;" edge="1" parent="1" target="HUeR2i0Ve-qyK_40Yj_W-10">
          <mxGeometry width="50" height="50" relative="1" as="geometry">
            <mxPoint x="399" y="200" as="sourcePoint" />
            <mxPoint x="440" y="250" as="targetPoint" />
          </mxGeometry>
        </mxCell>
      </root>
    </mxGraphModel>
  </diagram>
  <diagram id="2mQW40YiBdBHXCSA3I5Z" name="QUANLYPHIM">
    <mxGraphModel dx="1290" dy="530" grid="1" gridSize="10" guides="1" tooltips="1" connect="1" arrows="1" fold="1" page="1" pageScale="1" pageWidth="827" pageHeight="1169" math="0" shadow="0">
      <root>
        <mxCell id="0" />
        <mxCell id="1" parent="0" />
        <mxCell id="JmTtMjXCRZtTVu2bY9fE-1" value="&lt;font style=&quot;font-size: 14px;&quot; face=&quot;Times New Roman&quot;&gt;&lt;b&gt;QUẢN LÝ PHIM&lt;/b&gt;&lt;/font&gt;" style="rounded=0;whiteSpace=wrap;html=1;" parent="1" vertex="1">
          <mxGeometry x="320" y="80" width="150" height="50" as="geometry" />
        </mxCell>
        <mxCell id="JmTtMjXCRZtTVu2bY9fE-2" value="&lt;font face=&quot;Times New Roman&quot;&gt;&lt;b&gt;QUẢN LÍ DANH SÁCH PHIM&lt;/b&gt;&lt;/font&gt;" style="rounded=0;whiteSpace=wrap;html=1;" parent="1" vertex="1">
          <mxGeometry x="180" y="160" width="120" height="60" as="geometry" />
        </mxCell>
        <mxCell id="JmTtMjXCRZtTVu2bY9fE-3" value="&lt;font face=&quot;Times New Roman&quot;&gt;&lt;b&gt;XEM DANH SÁCH PHIM&lt;/b&gt;&lt;/font&gt;" style="rounded=0;whiteSpace=wrap;html=1;" parent="1" vertex="1">
          <mxGeometry x="480" y="160" width="120" height="60" as="geometry" />
        </mxCell>
        <mxCell id="JmTtMjXCRZtTVu2bY9fE-4" value="&lt;font face=&quot;Times New Roman&quot;&gt;&lt;b&gt;XEM CHI TIẾT PHIM&lt;/b&gt;&lt;/font&gt;" style="rounded=0;whiteSpace=wrap;html=1;" parent="1" vertex="1">
          <mxGeometry x="180" y="260" width="120" height="60" as="geometry" />
        </mxCell>
        <mxCell id="JmTtMjXCRZtTVu2bY9fE-5" value="&lt;font face=&quot;Times New Roman&quot;&gt;&lt;b&gt;DỪNG CHIẾU&lt;/b&gt;&lt;/font&gt;" style="rounded=0;whiteSpace=wrap;html=1;" parent="1" vertex="1">
          <mxGeometry x="480" y="260" width="120" height="60" as="geometry" />
        </mxCell>
        <mxCell id="JmTtMjXCRZtTVu2bY9fE-7" value="" style="endArrow=none;html=1;rounded=0;entryX=0.5;entryY=1;entryDx=0;entryDy=0;" parent="1" target="JmTtMjXCRZtTVu2bY9fE-1" edge="1">
          <mxGeometry width="50" height="50" relative="1" as="geometry">
            <mxPoint x="395" y="290" as="sourcePoint" />
            <mxPoint x="440" y="210" as="targetPoint" />
          </mxGeometry>
        </mxCell>
        <mxCell id="JmTtMjXCRZtTVu2bY9fE-8" value="" style="endArrow=none;html=1;rounded=0;exitX=1;exitY=0.5;exitDx=0;exitDy=0;entryX=0;entryY=0.5;entryDx=0;entryDy=0;" parent="1" source="JmTtMjXCRZtTVu2bY9fE-2" target="JmTtMjXCRZtTVu2bY9fE-3" edge="1">
          <mxGeometry width="50" height="50" relative="1" as="geometry">
            <mxPoint x="370" y="210" as="sourcePoint" />
            <mxPoint x="420" y="160" as="targetPoint" />
          </mxGeometry>
        </mxCell>
        <mxCell id="JmTtMjXCRZtTVu2bY9fE-9" value="" style="endArrow=none;html=1;rounded=0;exitX=1;exitY=0.5;exitDx=0;exitDy=0;entryX=0;entryY=0.5;entryDx=0;entryDy=0;" parent="1" edge="1">
          <mxGeometry width="50" height="50" relative="1" as="geometry">
            <mxPoint x="300" y="289.5" as="sourcePoint" />
            <mxPoint x="480" y="289.5" as="targetPoint" />
          </mxGeometry>
        </mxCell>
      </root>
    </mxGraphModel>
  </diagram>
  <diagram id="iosN70V-GH99x3qtzorC" name="QUANLYKHUYENMAI">
    <mxGraphModel dx="1290" dy="530" grid="1" gridSize="10" guides="1" tooltips="1" connect="1" arrows="1" fold="1" page="1" pageScale="1" pageWidth="827" pageHeight="1169" math="0" shadow="0">
      <root>
        <mxCell id="0" />
        <mxCell id="1" parent="0" />
        <mxCell id="RuLYsPvu7Jndht4I612S-1" value="&lt;font style=&quot;font-size: 14px;&quot; face=&quot;Times New Roman&quot;&gt;&lt;b&gt;QUẢN LÝ KHUYẾN MÃI&lt;/b&gt;&lt;/font&gt;" style="rounded=0;whiteSpace=wrap;html=1;" parent="1" vertex="1">
          <mxGeometry x="320" y="80" width="150" height="50" as="geometry" />
        </mxCell>
        <mxCell id="RuLYsPvu7Jndht4I612S-2" value="&lt;font face=&quot;Times New Roman&quot;&gt;&lt;b&gt;QUẢN LÍ DANH SÁCH KHUYẾN MÃI&lt;/b&gt;&lt;/font&gt;" style="rounded=0;whiteSpace=wrap;html=1;" parent="1" vertex="1">
          <mxGeometry x="180" y="160" width="120" height="60" as="geometry" />
        </mxCell>
        <mxCell id="RuLYsPvu7Jndht4I612S-3" value="&lt;font face=&quot;Times New Roman&quot;&gt;&lt;b&gt;XEM DANH SÁCH KHUYẾN MÃI&lt;/b&gt;&lt;/font&gt;" style="rounded=0;whiteSpace=wrap;html=1;" parent="1" vertex="1">
          <mxGeometry x="480" y="160" width="120" height="60" as="geometry" />
        </mxCell>
        <mxCell id="RuLYsPvu7Jndht4I612S-6" value="" style="endArrow=none;html=1;rounded=0;entryX=0.5;entryY=1;entryDx=0;entryDy=0;" parent="1" source="RuLYsPvu7Jndht4I612S-9" target="RuLYsPvu7Jndht4I612S-1" edge="1">
          <mxGeometry width="50" height="50" relative="1" as="geometry">
            <mxPoint x="395" y="290" as="sourcePoint" />
            <mxPoint x="440" y="210" as="targetPoint" />
          </mxGeometry>
        </mxCell>
        <mxCell id="RuLYsPvu7Jndht4I612S-7" value="" style="endArrow=none;html=1;rounded=0;exitX=1;exitY=0.5;exitDx=0;exitDy=0;entryX=0;entryY=0.5;entryDx=0;entryDy=0;" parent="1" source="RuLYsPvu7Jndht4I612S-2" target="RuLYsPvu7Jndht4I612S-3" edge="1">
          <mxGeometry width="50" height="50" relative="1" as="geometry">
            <mxPoint x="370" y="210" as="sourcePoint" />
            <mxPoint x="420" y="160" as="targetPoint" />
          </mxGeometry>
        </mxCell>
        <mxCell id="RuLYsPvu7Jndht4I612S-10" value="" style="endArrow=none;html=1;rounded=0;entryX=0.5;entryY=1;entryDx=0;entryDy=0;" parent="1" target="RuLYsPvu7Jndht4I612S-9" edge="1">
          <mxGeometry width="50" height="50" relative="1" as="geometry">
            <mxPoint x="395" y="290" as="sourcePoint" />
            <mxPoint x="395" y="130" as="targetPoint" />
          </mxGeometry>
        </mxCell>
        <mxCell id="RuLYsPvu7Jndht4I612S-9" value="&lt;font face=&quot;Times New Roman&quot;&gt;&lt;b&gt;HIỆU CHỈNH-TẠM NGƯNG&lt;/b&gt;&lt;/font&gt;" style="rounded=0;whiteSpace=wrap;html=1;" parent="1" vertex="1">
          <mxGeometry x="335" y="250" width="120" height="60" as="geometry" />
        </mxCell>
      </root>
    </mxGraphModel>
  </diagram>
  <diagram id="0wI4ZpPkVI2bV4DPkFOF" name="QUANLYLICHHCHIEU">
    <mxGraphModel dx="1290" dy="530" grid="1" gridSize="10" guides="1" tooltips="1" connect="1" arrows="1" fold="1" page="1" pageScale="1" pageWidth="827" pageHeight="1169" math="0" shadow="0">
      <root>
        <mxCell id="0" />
        <mxCell id="1" parent="0" />
        <mxCell id="jVmwelVNEIsr6q0YsTY--1" value="&lt;font style=&quot;font-size: 14px;&quot; face=&quot;Times New Roman&quot;&gt;&lt;b&gt;QUẢN LÝ LỊCH CHIẾU&lt;/b&gt;&lt;/font&gt;" style="rounded=0;whiteSpace=wrap;html=1;" vertex="1" parent="1">
          <mxGeometry x="320" y="80" width="150" height="50" as="geometry" />
        </mxCell>
        <mxCell id="jVmwelVNEIsr6q0YsTY--2" value="&lt;font face=&quot;Times New Roman&quot;&gt;&lt;b&gt;QUẢN LÍ LỊCH CHIẾU TỪNG PHIM&lt;/b&gt;&lt;/font&gt;" style="rounded=0;whiteSpace=wrap;html=1;" vertex="1" parent="1">
          <mxGeometry x="180" y="160" width="120" height="60" as="geometry" />
        </mxCell>
        <mxCell id="jVmwelVNEIsr6q0YsTY--3" value="&lt;font face=&quot;Times New Roman&quot;&gt;&lt;b&gt;XEM LỊCH CHIẾU TỪNG PHIM&lt;/b&gt;&lt;/font&gt;" style="rounded=0;whiteSpace=wrap;html=1;" vertex="1" parent="1">
          <mxGeometry x="480" y="160" width="120" height="60" as="geometry" />
        </mxCell>
        <mxCell id="jVmwelVNEIsr6q0YsTY--4" value="&lt;font face=&quot;Times New Roman&quot;&gt;&lt;b&gt;XEM LỊCH CHIẾU TRONG NGÀY CỦA CÁC PHIM&lt;/b&gt;&lt;/font&gt;" style="rounded=0;whiteSpace=wrap;html=1;" vertex="1" parent="1">
          <mxGeometry x="335" y="290" width="120" height="60" as="geometry" />
        </mxCell>
        <mxCell id="jVmwelVNEIsr6q0YsTY--6" value="" style="endArrow=none;html=1;rounded=0;entryX=0.5;entryY=1;entryDx=0;entryDy=0;" edge="1" parent="1" target="jVmwelVNEIsr6q0YsTY--1">
          <mxGeometry width="50" height="50" relative="1" as="geometry">
            <mxPoint x="395" y="290" as="sourcePoint" />
            <mxPoint x="440" y="210" as="targetPoint" />
          </mxGeometry>
        </mxCell>
        <mxCell id="jVmwelVNEIsr6q0YsTY--7" value="" style="endArrow=none;html=1;rounded=0;exitX=1;exitY=0.5;exitDx=0;exitDy=0;entryX=0;entryY=0.5;entryDx=0;entryDy=0;" edge="1" parent="1" source="jVmwelVNEIsr6q0YsTY--2" target="jVmwelVNEIsr6q0YsTY--3">
          <mxGeometry width="50" height="50" relative="1" as="geometry">
            <mxPoint x="370" y="210" as="sourcePoint" />
            <mxPoint x="420" y="160" as="targetPoint" />
          </mxGeometry>
        </mxCell>
      </root>
    </mxGraphModel>
  </diagram>
  <diagram id="GpYn09rLi_axvemt91hQ" name="THÔNGKE">
    <mxGraphModel dx="1290" dy="530" grid="1" gridSize="10" guides="1" tooltips="1" connect="1" arrows="1" fold="1" page="1" pageScale="1" pageWidth="827" pageHeight="1169" math="0" shadow="0">
      <root>
        <mxCell id="0" />
        <mxCell id="1" parent="0" />
        <mxCell id="jb9UgQqoNCTg2ZBHjWpH-1" value="&lt;font face=&quot;Times New Roman&quot;&gt;&lt;span style=&quot;font-size: 14px;&quot;&gt;&lt;b&gt;THỐNG KÊ&lt;/b&gt;&lt;/span&gt;&lt;/font&gt;" style="rounded=0;whiteSpace=wrap;html=1;" vertex="1" parent="1">
          <mxGeometry x="320" y="80" width="150" height="50" as="geometry" />
        </mxCell>
        <mxCell id="jb9UgQqoNCTg2ZBHjWpH-2" value="&lt;font face=&quot;Times New Roman&quot;&gt;&lt;b&gt;THỐNG KÊ SỐ VÉ TRONG TỪNG SUẤT CHIẾU&lt;/b&gt;&lt;/font&gt;" style="rounded=0;whiteSpace=wrap;html=1;" vertex="1" parent="1">
          <mxGeometry x="180" y="160" width="120" height="60" as="geometry" />
        </mxCell>
        <mxCell id="jb9UgQqoNCTg2ZBHjWpH-3" value="&lt;font face=&quot;Times New Roman&quot;&gt;&lt;b&gt;THỐNG KÊ DOANH THU TỪNG PHIM TRONG 1 RẠP&lt;/b&gt;&lt;/font&gt;" style="rounded=0;whiteSpace=wrap;html=1;" vertex="1" parent="1">
          <mxGeometry x="480" y="160" width="120" height="60" as="geometry" />
        </mxCell>
        <mxCell id="jb9UgQqoNCTg2ZBHjWpH-5" value="" style="endArrow=none;html=1;rounded=0;entryX=0.5;entryY=1;entryDx=0;entryDy=0;exitX=0.5;exitY=0;exitDx=0;exitDy=0;" edge="1" parent="1" target="jb9UgQqoNCTg2ZBHjWpH-1" source="FK_T2NMAYYMvwf7MJIVK-4">
          <mxGeometry width="50" height="50" relative="1" as="geometry">
            <mxPoint x="395" y="310" as="sourcePoint" />
            <mxPoint x="440" y="210" as="targetPoint" />
          </mxGeometry>
        </mxCell>
        <mxCell id="jb9UgQqoNCTg2ZBHjWpH-6" value="" style="endArrow=none;html=1;rounded=0;exitX=1;exitY=0.5;exitDx=0;exitDy=0;entryX=0;entryY=0.5;entryDx=0;entryDy=0;" edge="1" parent="1" source="jb9UgQqoNCTg2ZBHjWpH-2" target="jb9UgQqoNCTg2ZBHjWpH-3">
          <mxGeometry width="50" height="50" relative="1" as="geometry">
            <mxPoint x="370" y="210" as="sourcePoint" />
            <mxPoint x="420" y="160" as="targetPoint" />
          </mxGeometry>
        </mxCell>
        <mxCell id="FK_T2NMAYYMvwf7MJIVK-5" value="" style="endArrow=none;html=1;rounded=0;entryX=0.5;entryY=1;entryDx=0;entryDy=0;exitX=0.5;exitY=0;exitDx=0;exitDy=0;" edge="1" parent="1" target="FK_T2NMAYYMvwf7MJIVK-4">
          <mxGeometry width="50" height="50" relative="1" as="geometry">
            <mxPoint x="395" y="310" as="sourcePoint" />
            <mxPoint x="395" y="130" as="targetPoint" />
          </mxGeometry>
        </mxCell>
        <mxCell id="FK_T2NMAYYMvwf7MJIVK-4" value="&lt;font face=&quot;Times New Roman&quot;&gt;&lt;b&gt;THỐNG KÊ DOANH THU CỦA TỪNG PHIM Ở TẤT CẢ CÁC RẠP&lt;/b&gt;&lt;/font&gt;" style="rounded=0;whiteSpace=wrap;html=1;" vertex="1" parent="1">
          <mxGeometry x="307.5" y="250" width="175" height="60" as="geometry" />
        </mxCell>
      </root>
    </mxGraphModel>
  </diagram>
</mxfile>
